<svg width="20" height="20" viewBox="0 0 20 20" fill="none" xmlns="http://www.w3.org/2000/svg">
<path d="M16.6663 10.833V4.99967C16.6663 4.0792 15.9201 3.33301 14.9997 3.33301H4.99967C4.0792 3.33301 3.33301 4.0792 3.33301 4.99967V10.833M16.6663 10.833V14.9997C16.6663 15.9201 15.9201 16.6663 14.9997 16.6663H4.99967C4.0792 16.6663 3.33301 15.9201 3.33301 14.9997V10.833M16.6663 10.833H14.5115C14.2905 10.833 14.0785 10.9208 13.9223 11.0771L11.9104 13.0889C11.7541 13.2452 11.5422 13.333 11.3212 13.333H8.67819C8.45717 13.333 8.24521 13.2452 8.08893 13.0889L6.07709 11.0771C5.92081 10.9208 5.70884 10.833 5.48783 10.833H3.33301" stroke="#64748B" stroke-width="1.5" stroke-linecap="round" stroke-linejoin="round"/>
</svg>
