<svg width="20" height="22" viewBox="0 0 20 22" fill="none" xmlns="http://www.w3.org/2000/svg">
<path d="M12.926 1.91032L6.274 5.10432C5.77193 5.34902 5.2009 5.41329 4.657 5.28632C4.42752 5.22941 4.19562 5.1827 3.962 5.14632C2.137 4.93932 1 6.38332 1 8.04432V8.95632C1 10.6163 2.137 12.0613 3.962 11.8523C4.19587 11.8178 4.42783 11.7714 4.657 11.7133C5.20101 11.5867 5.77205 11.6513 6.274 11.8963L12.926 15.0893C14.453 15.8223 15.217 16.1893 16.068 15.9033C16.92 15.6173 17.212 15.0043 17.796 13.7783C18.5885 12.1317 19.0001 10.3277 19.0001 8.50032C19.0001 6.6729 18.5885 4.86894 17.796 3.22232C17.212 1.99632 16.92 1.38232 16.068 1.09732C15.217 0.811325 14.453 1.17632 12.926 1.91032Z" stroke="#64748B" stroke-width="1.5" stroke-linecap="round" stroke-linejoin="round"/>
<path d="M5.49986 11.4995V5.49951M9.45786 19.7695L7.96686 20.9995C4.60486 18.3335 5.01586 17.0625 5.01586 11.9995H6.14986C6.60986 14.8595 7.69486 16.2155 9.19286 17.1965C10.1149 17.8005 10.3049 19.0715 9.45786 19.7695Z" stroke="#64748B" stroke-width="1.5" stroke-linecap="round" stroke-linejoin="round"/>
</svg>
