<svg width="26" height="26" viewBox="0 0 26 26" fill="none" xmlns="http://www.w3.org/2000/svg">
<rect x="-0.5" y="0.5" width="25" height="25" rx="12.5" transform="matrix(1 0 0 -1 1 26)" fill="white"/>
<rect x="-0.5" y="0.5" width="25" height="25" rx="12.5" transform="matrix(1 0 0 -1 1 26)" stroke="#E2E8F0"/>
<path fill-rule="evenodd" clip-rule="evenodd" d="M15.1658 16.7657C15.4782 16.4533 15.4782 15.9467 15.1658 15.6343L12.5315 13L15.1658 10.3657C15.4782 10.0533 15.4782 9.54673 15.1658 9.23431C14.8534 8.9219 14.3468 8.9219 14.0344 9.23431L10.8344 12.4343C10.522 12.7467 10.522 13.2533 10.8344 13.5657L14.0344 16.7657C14.3468 17.0781 14.8534 17.0781 15.1658 16.7657Z" fill="#081021"/>
</svg>
