<svg width="24" height="25" viewBox="0 0 24 25" fill="none" xmlns="http://www.w3.org/2000/svg">
<path fill-rule="evenodd" clip-rule="evenodd" d="M8.75178 5.79961C8.05825 6.59029 7.66667 7.73664 7.66667 9.1V10.8333C7.66667 11.6939 7.27938 12.4088 6.86882 12.9535C6.49335 13.4517 6.02576 13.899 5.65857 14.2502C5.62774 14.2797 5.59761 14.3085 5.56831 14.3366C5.22481 14.6662 5 15.1136 5 15.6333C5 16.1585 5.39364 16.5 5.77778 16.5H18.2222C18.6064 16.5 19 16.1585 19 15.6333C19 15.1136 18.7752 14.6662 18.4317 14.3366C18.4024 14.3085 18.3723 14.2797 18.3414 14.2502C17.9742 13.899 17.5066 13.4517 17.1312 12.9535C16.7206 12.4088 16.3333 11.6939 16.3333 10.8333V9.1C16.3333 7.73664 15.9417 6.59029 15.2482 5.79962C14.5713 5.02782 13.5251 4.5 12 4.5C10.4749 4.5 9.42875 5.02782 8.75178 5.79961ZM7.24822 4.48079C8.34903 3.22578 9.9695 2.5 12 2.5C14.0305 2.5 15.651 3.22578 16.7518 4.48079C17.836 5.71692 18.3333 7.37057 18.3333 9.1V10.8333C18.3333 11.0774 18.4428 11.3709 18.7283 11.7498C19.002 12.1129 19.3573 12.4534 19.7498 12.8296C19.7718 12.8508 19.794 12.872 19.8163 12.8934C20.5 13.5494 21 14.4996 21 15.6333C21 17.17 19.8018 18.5 18.2222 18.5H5.77778C4.19824 18.5 3 17.17 3 15.6333C3 14.4996 3.49997 13.5494 4.18372 12.8934C4.206 12.872 4.22817 12.8508 4.25022 12.8296C4.6427 12.4534 4.99798 12.1129 5.27166 11.7498C5.55716 11.3709 5.66667 11.0774 5.66667 10.8333V9.1C5.66667 7.37057 6.16397 5.71692 7.24822 4.48079Z" fill="#474747"/>
<path fill-rule="evenodd" clip-rule="evenodd" d="M9.44313 19.6696C9.90183 19.362 10.523 19.4844 10.8306 19.9431C10.93 20.0913 11.0844 20.2311 11.292 20.3346C11.4999 20.4381 11.7445 20.4966 12.0001 20.4966C12.2557 20.4966 12.5003 20.4381 12.7082 20.3346C12.9158 20.2311 13.0702 20.0913 13.1696 19.9431C13.4772 19.4844 14.0984 19.362 14.5571 19.6696C15.0158 19.9772 15.1382 20.5984 14.8306 21.0571C14.5235 21.515 14.0945 21.8784 13.6001 22.1247C13.1059 22.3709 12.5547 22.4966 12.0001 22.4966C11.4455 22.4966 10.8943 22.3709 10.4001 22.1247C9.90574 21.8784 9.47669 21.515 9.16957 21.0571C8.86196 20.5984 8.98444 19.9772 9.44313 19.6696Z" fill="#474747"/>
</svg>
