<svg width="42" height="42" viewBox="0 0 42 42" fill="none" xmlns="http://www.w3.org/2000/svg">
<ellipse opacity="0.5" cx="20.8863" cy="21" rx="20.4347" ry="21" fill="#EEF2FF"/>
<path d="M13.0015 18.704C12.9995 18.839 13.0372 18.9714 13.1095 19.0837C13.1817 19.196 13.2853 19.2829 13.4063 19.333L19.585 21.892L22.0568 28.2891C22.1046 28.4128 22.1871 28.5189 22.2937 28.5936C22.4002 28.6683 22.526 28.7082 22.6547 28.7082H22.665C22.7953 28.706 22.922 28.663 23.0282 28.5847C23.1343 28.5064 23.2151 28.3966 23.2596 28.2698L28.408 13.6127C28.4501 13.4935 28.4585 13.3642 28.432 13.2402C28.4056 13.1163 28.3455 13.0027 28.2588 12.9128C28.1722 12.823 28.0625 12.7607 27.9427 12.7333C27.823 12.7058 27.6982 12.7144 27.5829 12.7579L13.425 18.0878C13.3024 18.134 13.1962 18.2176 13.1206 18.3277C13.045 18.4377 13.0035 18.569 13.0015 18.704Z" fill="#0264DB"/>
</svg>
