<svg width="21" height="19" viewBox="0 0 21 19" fill="none" xmlns="http://www.w3.org/2000/svg">
<path fill-rule="evenodd" clip-rule="evenodd" d="M10.419 0.718262C10.6108 0.71804 10.7978 0.782773 10.9529 0.903113C11.108 1.02345 11.2232 1.19317 11.2817 1.38776L15.2469 14.5836L16.7987 9.42038C16.8571 9.22577 16.9719 9.05592 17.1268 8.93536C17.2817 8.81479 17.4685 8.74974 17.6603 8.74961H19.1687C19.4087 8.74961 19.6389 8.85114 19.8086 9.03189C19.9784 9.21263 20.0737 9.45776 20.0737 9.71337C20.0737 9.96897 19.9784 10.2141 19.8086 10.3948C19.6389 10.5756 19.4087 10.6771 19.1687 10.6771H18.3204L16.1085 18.039C16.0499 18.2332 15.9349 18.4026 15.78 18.5228C15.6252 18.643 15.4385 18.7077 15.2469 18.7077C15.0553 18.7077 14.8687 18.643 14.7139 18.5228C14.559 18.4026 14.444 18.2332 14.3854 18.039L10.4262 4.86372L7.66286 14.1801C7.60585 14.3721 7.49381 14.5402 7.34248 14.6609C7.19114 14.7816 7.00811 14.8488 6.81908 14.853C6.63005 14.8573 6.44451 14.7984 6.28852 14.6846C6.13254 14.5708 6.01393 14.4079 5.94936 14.2186L4.42409 9.75192L4.33962 10.0192C4.27963 10.211 4.16449 10.3779 4.01052 10.4962C3.85655 10.6145 3.67153 10.6783 3.48166 10.6784H1.67162C1.4316 10.6784 1.2014 10.5769 1.03168 10.3961C0.861952 10.2154 0.766602 9.97026 0.766602 9.71465C0.766602 9.45905 0.861952 9.21391 1.03168 9.03317C1.2014 8.85243 1.4316 8.75089 1.67162 8.75089H2.83005L3.52752 6.51882C3.58665 6.3287 3.69992 6.16292 3.8516 6.04452C4.00328 5.92612 4.18583 5.86098 4.37388 5.85816C4.56192 5.85533 4.74613 5.91496 4.90088 6.02875C5.05564 6.14255 5.17326 6.30486 5.23741 6.49312L6.73974 10.8943L9.55737 1.3929C9.61506 1.19756 9.72967 1.02687 9.88458 0.905566C10.0395 0.784265 10.2267 0.718659 10.419 0.718262Z" fill="#0264DB"/>
</svg>
