<svg width="18" height="21" viewBox="0 0 18 21" fill="none" xmlns="http://www.w3.org/2000/svg">
<path d="M9 12.2681L7.64 10.9981C6.06759 9.53924 4.11056 8.56073 2 8.17813V15.1281C4.61 15.4681 7 16.4681 9 17.9481C11 16.4681 13.39 15.4681 16 15.1281V8.17813C13.84 8.56813 11.91 9.56813 10.36 10.9981M16 6.14813C16.65 6.04813 17.32 5.99813 18 5.99813V16.9981C14.5 16.9981 11.36 18.3481 9 20.5381C6.64 18.3481 3.5 16.9981 0 16.9981V5.99813C0.68 5.99813 1.35 6.04813 2 6.14813C4.69 6.55813 7.1 7.77813 9 9.53813C10.9 7.77813 13.31 6.55813 16 6.14813ZM9 3.99813C9.27 3.99813 9.5 3.89813 9.71 3.70813C9.9 3.49813 10 3.26813 10 2.99813C10 2.72813 9.9 2.49813 9.71 2.28813C9.5 2.10813 9.27 1.99813 9 1.99813C8.73 1.99813 8.5 2.10813 8.29 2.28813C8.11 2.49813 8 2.73813 8 2.99813C8 3.25813 8.11 3.49813 8.29 3.70813C8.5 3.89813 8.74 3.99813 9 3.99813ZM11.12 5.11813C10.5577 5.68039 9.79515 5.99627 9 5.99627C8.20485 5.99627 7.44226 5.68039 6.88 5.11813C6.31774 4.55587 6.00187 3.79329 6.00187 2.99813C6.00187 2.20298 6.31774 1.44039 6.88 0.878133C7.1584 0.59973 7.48891 0.37889 7.85266 0.228219C8.21641 0.077549 8.60628 0 9 0C9.39372 0 9.78359 0.077549 10.1473 0.228219C10.5111 0.37889 10.8416 0.59973 11.12 0.878133C11.3984 1.15654 11.6192 1.48705 11.7699 1.8508C11.9206 2.21455 11.9981 2.60441 11.9981 2.99813C11.9981 3.39185 11.9206 3.78172 11.7699 4.14547C11.6192 4.50922 11.3984 4.83973 11.12 5.11813Z" fill="#64748B"/>
</svg>
