<svg width="20" height="20" viewBox="0 0 20 20" fill="none" xmlns="http://www.w3.org/2000/svg">
<path d="M14.1663 11.6663V16.6663M11.6663 14.1663H16.6663M4.99967 8.33301H6.66634C7.58682 8.33301 8.33301 7.58682 8.33301 6.66634V4.99967C8.33301 4.0792 7.58682 3.33301 6.66634 3.33301H4.99967C4.0792 3.33301 3.33301 4.0792 3.33301 4.99967V6.66634C3.33301 7.58682 4.0792 8.33301 4.99967 8.33301ZM13.333 8.33301H14.9997C15.9201 8.33301 16.6663 7.58682 16.6663 6.66634V4.99967C16.6663 4.0792 15.9201 3.33301 14.9997 3.33301H13.333C12.4125 3.33301 11.6663 4.0792 11.6663 4.99967V6.66634C11.6663 7.58682 12.4125 8.33301 13.333 8.33301ZM4.99967 16.6663H6.66634C7.58682 16.6663 8.33301 15.9201 8.33301 14.9997V13.333C8.33301 12.4125 7.58682 11.6663 6.66634 11.6663H4.99967C4.0792 11.6663 3.33301 12.4125 3.33301 13.333V14.9997C3.33301 15.9201 4.0792 16.6663 4.99967 16.6663Z" stroke="#0264DB" stroke-width="1.5" stroke-linecap="round" stroke-linejoin="round"/>
</svg>
