<svg width="16" height="17" viewBox="0 0 16 17" fill="none" xmlns="http://www.w3.org/2000/svg">
<path d="M0.0015404 6.70404C-0.00045672 6.83898 0.0371774 6.97136 0.109461 7.08367C0.181744 7.19598 0.285268 7.28291 0.406329 7.33296L6.58499 9.89196L9.05684 16.2891C9.10459 16.4128 9.18708 16.5189 9.29365 16.5936C9.40023 16.6683 9.52599 16.7082 9.65469 16.7082H9.66499C9.79533 16.706 9.92197 16.663 10.0282 16.5847C10.1343 16.5064 10.2151 16.3966 10.2596 16.2698L15.408 1.6127C15.4501 1.49346 15.4585 1.36423 15.432 1.24024C15.4056 1.11626 15.3455 1.00266 15.2588 0.912848C15.1722 0.823032 15.0625 0.760731 14.9427 0.733283C14.823 0.705835 14.6982 0.714383 14.5829 0.75792L0.424992 6.08777C0.302389 6.13395 0.196239 6.21762 0.120614 6.32767C0.0449899 6.43773 0.00346339 6.56899 0.0015404 6.70404Z" fill="#0264DB"/>
</svg>
