<svg width="19" height="23" viewBox="0 0 19 23" fill="none" xmlns="http://www.w3.org/2000/svg">
<path d="M11.2327 10.714H14.6114M1.5791 9.08293C1.5791 5.61196 1.5791 3.87598 2.56859 2.79761C3.55808 1.71924 5.15092 1.71924 8.33659 1.71924H11.2327C14.4183 1.71924 16.0112 1.71924 17.0007 2.79861C17.9902 3.87498 17.9902 5.61096 17.9902 9.08193V14.3429C17.9902 17.8138 17.9902 19.5498 17.0007 20.6282C16.0112 21.7065 14.4183 21.7075 11.2327 21.7075H8.33659C5.15092 21.7075 3.55808 21.7075 2.56859 20.6282C1.5791 19.5518 1.5791 17.8158 1.5791 14.3449V9.08293Z" stroke="#0264DB" stroke-width="1.5" stroke-linecap="round" stroke-linejoin="round"/>
<path d="M4.95752 11.7134C4.95752 11.7134 5.4402 11.7134 5.92288 12.7128C5.92288 12.7128 7.45586 10.2143 8.81894 9.71456M11.2323 16.7105H14.6111M5.92288 1.71924L6.00203 2.21195C6.19511 3.40825 6.29164 4.0069 6.69709 4.36269C7.10061 4.71748 7.68658 4.71748 8.85852 4.71748H10.7091C11.8801 4.71748 12.4661 4.71748 12.8715 4.36269C13.277 4.0069 13.3735 3.40825 13.5656 2.21195L13.6457 1.71924M5.92288 16.7105H6.88823" stroke="#0264DB" stroke-width="1.5" stroke-linecap="round" stroke-linejoin="round"/>
</svg>
