<svg width="23" height="21" viewBox="0 0 23 21" fill="none" xmlns="http://www.w3.org/2000/svg">
<path d="M15.4112 19.7078V17.709C15.4112 16.6487 15.0011 15.6319 14.2712 14.8822C13.5412 14.1325 12.5512 13.7113 11.5189 13.7113H5.6804C4.64809 13.7113 3.65807 14.1325 2.92812 14.8822C2.19817 15.6319 1.78809 16.6487 1.78809 17.709V19.7078" stroke="#0264DB" stroke-width="2" stroke-linecap="round" stroke-linejoin="round"/>
<path d="M8.59983 9.71358C10.7495 9.71358 12.4921 7.92377 12.4921 5.71592C12.4921 3.50808 10.7495 1.71826 8.59983 1.71826C6.45017 1.71826 4.70752 3.50808 4.70752 5.71592C4.70752 7.92377 6.45017 9.71358 8.59983 9.71358Z" stroke="#0264DB" stroke-width="2" stroke-linecap="round" stroke-linejoin="round"/>
<path d="M21.2506 19.7077V17.7089C21.2499 16.8231 20.9629 15.9627 20.4345 15.2626C19.9062 14.5626 19.1664 14.0626 18.3313 13.8411M15.4121 1.84814C16.2494 2.06832 16.9915 2.56842 17.5214 3.26962C18.0513 3.97082 18.339 4.83323 18.339 5.72088C18.339 6.60853 18.0513 7.47093 17.5214 8.17213C16.9915 8.87333 16.2494 9.37344 15.4121 9.59361" stroke="#0264DB" stroke-width="2" stroke-linecap="round" stroke-linejoin="round"/>
</svg>
