<svg width="24" height="25" viewBox="0 0 24 25" fill="none" xmlns="http://www.w3.org/2000/svg">
<path fill-rule="evenodd" clip-rule="evenodd" d="M2 12.5C2 6.97715 6.47715 2.5 12 2.5C17.5228 2.5 22 6.97715 22 12.5C22 18.0228 17.5228 22.5 12 22.5C6.47715 22.5 2 18.0228 2 12.5ZM12 4.5C7.58172 4.5 4 8.08172 4 12.5C4 16.9183 7.58172 20.5 12 20.5C16.4183 20.5 20 16.9183 20 12.5C20 8.08172 16.4183 4.5 12 4.5Z" fill="#474747"/>
<path fill-rule="evenodd" clip-rule="evenodd" d="M16.6402 8.7318C17.0645 9.08537 17.1218 9.71593 16.7682 10.1402L11.7682 16.1402C11.5937 16.3497 11.3411 16.4788 11.0691 16.4976C10.797 16.5165 10.5291 16.4234 10.3273 16.24L7.32733 13.5127C6.91868 13.1412 6.88856 12.5087 7.26007 12.1001C7.63157 11.6914 8.26402 11.6613 8.67268 12.0328L10.9002 14.0578L15.2318 8.85984C15.5854 8.43556 16.2159 8.37824 16.6402 8.7318Z" fill="#474747"/>
</svg>
